<?xml version="1.0" standalone="no"?>
<!DOCTYPE svg PUBLIC "-//W3C//DTD SVG 20010904//EN"
 "http://www.w3.org/TR/2001/REC-SVG-20010904/DTD/svg10.dtd">
<svg version="1.0" xmlns="http://www.w3.org/2000/svg"
 width="519.000000pt" height="519.000000pt" viewBox="0 0 519.000000 519.000000"
 preserveAspectRatio="xMidYMid meet">
<metadata>
Created by potrace 1.14, written by Peter Selinger 2001-2017
</metadata>
<g transform="translate(0.000000,519.000000) scale(0.100000,-0.100000)"
fill="#000000" stroke="none">
<path d="M1978 4705 c-1 -1 -34 -5 -73 -8 -140 -12 -351 -60 -505 -117 -168
-61 -446 -213 -556 -303 -11 -9 -45 -37 -76 -63 -32 -25 -58 -48 -58 -51 0 -8
33 -68 135 -248 56 -99 113 -200 127 -225 14 -25 125 -223 248 -440 123 -217
234 -415 248 -440 14 -25 62 -110 107 -190 45 -80 94 -166 108 -192 15 -26 46
-83 70 -125 63 -111 84 -148 132 -233 42 -76 207 -368 254 -450 44 -77 49 -85
54 -80 2 3 39 73 82 155 43 83 85 164 95 180 9 17 47 88 84 159 76 146 147
279 153 285 2 3 208 5 457 5 451 1 454 1 444 -19 -17 -33 -235 -428 -335 -608
-51 -92 -93 -169 -93 -171 0 -2 -25 -48 -55 -101 -31 -54 -73 -130 -94 -169
-21 -39 -51 -93 -66 -121 -53 -95 -62 -110 -110 -200 -26 -49 -56 -102 -67
-117 -10 -14 -18 -29 -18 -32 0 -4 -20 -41 -43 -84 -82 -144 -108 -195 -103
-199 9 -10 285 69 393 113 382 153 731 431 964 769 66 97 142 234 195 354 70
160 147 430 156 549 2 25 7 32 23 33 11 0 188 0 393 -1 l373 0 78 162 c43 90
77 164 76 165 -1 2 -209 3 -463 4 l-462 0 -1 47 c0 26 -2 57 -3 70 l-3 22 389
0 388 0 71 141 c39 78 75 153 80 166 l9 24 -468 -2 c-578 -1 -532 -2 -532 16
0 8 -18 70 -41 137 l-40 123 54 100 c30 55 53 101 52 103 -1 1 -49 3 -106 3
l-105 2 -44 75 c-114 195 -307 417 -496 567 -225 180 -521 327 -804 400 -75
20 -72 19 -170 35 -41 6 -86 14 -100 16 -29 6 -396 14 -402 9z m1785 -1933
c-3 -9 -20 -40 -36 -69 l-31 -51 -458 0 -457 1 35 68 36 68 459 0 c430 1 458
0 452 -17z"/>
<path d="M117 3258 c-37 -114 -73 -254 -81 -318 -2 -19 -7 -55 -10 -80 -4 -25
-9 -61 -11 -80 -6 -51 -6 -328 0 -377 23 -191 25 -202 51 -308 25 -101 58
-213 74 -250 5 -11 23 -54 40 -95 53 -127 175 -342 243 -426 104 -130 182
-217 255 -284 214 -201 451 -346 737 -452 136 -50 416 -114 403 -92 -55 95
-245 426 -255 444 -8 14 -22 39 -32 56 -34 56 -243 418 -269 464 -14 25 -63
109 -108 188 -46 79 -84 147 -84 152 0 6 -4 10 -10 10 -5 0 -10 4 -10 9 0 7
-252 450 -311 546 -11 17 -22 37 -26 45 -4 8 -79 138 -166 290 -88 151 -174
300 -190 330 -17 30 -48 83 -69 118 -21 34 -38 64 -38 67 0 5 -91 155 -94 155
-1 0 -19 -51 -39 -112z"/>
</g>
</svg>
