<?xml version="1.0" encoding="UTF-8"?> <svg xmlns="http://www.w3.org/2000/svg" width="40" height="40" viewBox="0 0 40 40" fill="none"> <path d="M25.2114 9.92444H14.6894C12.0563 9.92444 9.91406 12.0667 9.91406 14.6997V25.3183C9.91406 27.9513 12.0563 30.0936 14.6894 30.0936H25.2114C27.8444 30.0936 29.9867 27.9513 29.9867 25.3183V14.6997C29.9867 12.0667 27.8444 9.92444 25.2114 9.92444ZM19.9704 26.3671C16.4013 26.3671 13.4978 23.4944 13.4978 19.9634C13.4978 16.4324 16.4017 13.5597 19.9704 13.5597C23.5391 13.5597 26.4431 16.4324 26.4431 19.9634C26.4431 23.4944 23.5395 26.3671 19.9704 26.3671ZM26.5583 14.8206C25.7171 14.8206 25.0353 14.1388 25.0353 13.2977C25.0353 12.4565 25.7171 11.7747 26.5583 11.7747C27.3995 11.7747 28.0812 12.4565 28.0812 13.2977C28.0812 14.1388 27.3995 14.8206 26.5583 14.8206Z" fill="#282828"></path> <path d="M20 0C8.95441 0 0 8.95441 0 20C0 31.0456 8.95441 40 20 40C31.0456 40 40 31.0456 40 20C40 8.95441 31.0456 0 20 0ZM32.3487 25.3184C32.3487 29.2541 29.1467 32.4558 25.2113 32.4558H14.6893C10.7536 32.4558 7.55191 29.2537 7.55191 25.3184V14.6999C7.55191 10.7641 10.754 7.56246 14.6893 7.56246H25.2113C29.1471 7.56246 32.3487 10.7645 32.3487 14.6999V25.3184Z" fill="#282828"></path> <path d="M19.9705 15.9174C17.7013 15.9174 15.8555 17.7323 15.8555 19.9634C15.8555 22.1945 17.7013 24.0095 19.9705 24.0095C22.2397 24.0095 24.0855 22.1945 24.0855 19.9634C24.0855 17.7323 22.2397 15.9174 19.9705 15.9174Z" fill="#282828"></path> </svg> 