<?xml version="1.0" encoding="UTF-8"?> <svg xmlns="http://www.w3.org/2000/svg" width="40" height="40" viewBox="0 0 40 40" fill="none"> <path d="M20 0C8.95441 0 0 8.95441 0 20C0 31.0456 8.95441 40 20 40C31.0456 40 40 31.0456 40 20C40 8.95441 31.0456 0 20 0ZM19.3235 10.4214C19.4711 10.4186 19.6256 10.4413 19.7583 10.4409C19.8122 10.4405 19.8621 10.4364 19.9055 10.4255C24.6816 10.599 28.8494 14.9408 28.7626 19.7169C28.7626 20.1509 28.9362 20.8456 28.2414 20.8456C27.5466 20.8456 27.7202 20.1509 27.7202 19.6301C27.6444 19.0006 27.541 18.413 27.4092 17.8654C27.2773 17.3179 27.1163 16.8101 26.9253 16.34C26.6381 15.6347 26.2829 15.0142 25.8525 14.4711C24.5624 12.8415 22.6026 11.9074 19.8183 11.4678C19.3843 11.381 18.7764 11.4678 18.7764 10.9466C18.7764 10.4956 19.0363 10.421 19.3235 10.4214ZM25.8967 19.8905C25.1152 19.9773 25.2888 19.2825 25.202 18.8486C24.6808 15.8091 23.6389 14.6804 20.5131 13.9856C20.0787 13.8988 19.3843 13.9856 19.4711 13.2909C19.5579 12.5961 20.2527 12.8569 20.6866 12.9437C23.8129 13.2909 26.3311 15.8959 26.3311 18.8486C26.2439 19.1957 26.5047 19.8037 25.8967 19.8905ZM23.9865 18.3274C23.9865 18.6746 23.9865 19.1089 23.4653 19.1957C23.1181 19.1957 22.9441 18.9354 22.8573 18.5878C22.7705 17.2854 22.0758 16.5907 20.7734 16.4167C20.4263 16.3299 19.9919 16.2431 20.1655 15.7219C20.2523 15.3748 20.5994 15.3748 20.947 15.3748C22.4233 15.2884 23.9865 16.8515 23.9865 18.3274ZM28.849 27.8796C28.3278 29.3559 26.5043 30.8318 24.9412 30.8318C24.7676 30.7451 24.3332 30.7451 23.8993 30.5715C17.1261 27.6192 12.0896 22.8431 9.31092 15.8963C8.35578 13.6385 9.39771 11.6414 11.7424 10.8598C12.1763 10.6862 12.6107 10.6862 13.0447 10.8598C14.0866 11.207 16.6049 14.7676 16.6917 15.8095C16.7785 16.6779 16.1705 17.1119 15.6497 17.4594C14.6078 18.1542 14.6078 19.1093 15.0418 20.0645C16.0837 22.3224 17.8204 23.7983 19.9915 24.8406C20.773 25.1878 21.5546 25.1878 22.0754 24.3194C23.0305 22.8431 24.246 22.8431 25.5488 23.7983C26.1567 24.2322 26.8511 24.6666 27.459 25.1878C28.3282 25.8821 29.3701 26.4901 28.849 27.8796Z" fill="#282828"></path> </svg> 